<?xml version="1.0" encoding="utf-8"?>
<svg version="1.1" width="17.9883px" height="13.9653px" preserveAspectRatio="none" viewBox="0 0 17.9883 13.9653" xmlns="http://www.w3.org/2000/svg">
  <defs>
    <clipPath id="clippath2" transform="">
      <path d="M 0 13.965 L 17.988 13.965 L 17.988 0 L 0 0 Z" style="fill: none; clip-rule: nonzero;"/>
    </clipPath>
  </defs>
  <g transform="matrix(1 0 0 -1 0 13.9653)">
    <g transform="">
      <path d="M 0 13.965 L 17.988 13.965 L 17.988 0 L 0 0 Z" style="fill: none;"/>
    </g>
    <g style="clip-path: url(#clippath2);">
      <g transform="translate(14.9141 12.1514)">
        <path d="M 0 0 C 1.197 0.998 0.902 1.814 -0.657 1.814 L -11.183 1.814 C -12.743 1.814 -13.037 0.998 -11.84 0 L -8.098 -3.118 C -6.9 -4.116 -4.939 -4.116 -3.743 -3.118 Z" style="fill: rgb(210, 40, 86); fill-opacity: 1;"/>
      </g>
    </g>
    <g style="clip-path: url(#clippath2);">
      <g transform="translate(11.9131 6.9214)">
        <path d="M 0 0 C -1.198 -0.998 -2.195 -1.826 -2.218 -1.835 L -2.238 -1.849 C -2.312 -1.906 -2.39 -1.951 -2.473 -1.985 C -2.506 -2 -2.539 -2.019 -2.573 -2.033 C -2.683 -2.067 -2.796 -2.091 -2.908 -2.091 C -2.911 -2.091 -2.915 -2.093 -2.918 -2.093 L -2.919 -2.093 L -2.92 -2.093 C -2.923 -2.093 -2.927 -2.091 -2.93 -2.091 C -3.043 -2.089 -3.154 -2.067 -3.265 -2.033 C -3.299 -2.019 -3.333 -2 -3.365 -1.985 C -3.448 -1.951 -3.524 -1.906 -3.6 -1.849 L -3.62 -1.835 C -3.642 -1.824 -4.64 -0.998 -5.838 0 L -9.734 3.248 C -10.934 4.246 -11.913 3.787 -11.913 2.228 L -11.913 -4.087 C -11.913 -5.647 -10.638 -6.921 -9.078 -6.921 L 3.24 -6.921 C 4.8 -6.921 6.075 -5.647 6.075 -4.087 L 6.075 2.228 C 6.075 3.787 5.096 4.246 3.897 3.248 Z" style="fill: rgb(210, 40, 86); fill-opacity: 1;"/>
      </g>
    </g>
  </g>
</svg>