<?xml version="1.0" encoding="utf-8"?>
<svg version="1.1" width="19.6973px" height="19.6953px" preserveAspectRatio="none" viewBox="0 0 19.6973 19.6953" xmlns="http://www.w3.org/2000/svg">
  <defs>
    <clipPath id="clippath0" transform="">
      <path d="M 0 19.695 L 19.697 19.695 L 19.697 0 L 0 0 Z" style="fill: none; clip-rule: nonzero;"/>
    </clipPath>
  </defs>
  <g transform="matrix(1 0 0 -1 0 19.6953)">
    <g transform="">
      <path d="M 0 19.695 L 19.697 19.695 L 19.697 0 L 0 0 Z" style="fill: none;"/>
    </g>
    <g style="clip-path: url(#clippath0);">
      <g transform="translate(9.8486 10.668)">
        <path d="M 0 0 C 1.813 0 3.281 -1.469 3.281 -3.282 C 3.281 -5.097 1.813 -6.564 0 -6.564 C -1.813 -6.564 -3.281 -5.097 -3.281 -3.282 C -3.281 -1.469 -1.814 0 0 0 M -1.232 2.053 L -1.232 3.076 C -1.232 3.644 -1.692 4.103 -2.258 4.103 C -2.823 4.103 -3.281 3.644 -3.281 3.076 L -3.281 2.053 L -8.818 -3.86 C -9.2 -4.236 -9.438 -4.755 -9.438 -5.33 L -9.438 -6.977 C -9.438 -7.884 -8.703 -8.619 -7.797 -8.619 L -7.386 -8.619 L -7.386 -9.643 C -7.386 -10.21 -6.926 -10.668 -6.359 -10.668 C -5.794 -10.668 -5.335 -10.21 -5.335 -9.643 L -5.335 -8.619 L 5.334 -8.619 L 5.334 -9.643 C 5.334 -10.21 5.794 -10.668 6.358 -10.668 C 6.926 -10.668 7.385 -10.21 7.385 -9.643 L 7.385 -8.619 L 7.796 -8.619 C 8.7 -8.619 9.436 -7.885 9.436 -6.977 L 9.436 -5.33 C 9.436 -4.755 9.199 -4.236 8.817 -3.86 L 3.281 2.053 L 3.281 3.076 C 3.281 3.644 2.822 4.103 2.258 4.103 C 1.69 4.103 1.23 3.644 1.23 3.076 L 1.23 2.053 Z M 0 -1.643 C -0.908 -1.643 -1.644 -2.375 -1.644 -3.282 C -1.644 -4.189 -0.909 -4.924 0 -4.924 C 0.905 -4.924 1.641 -4.19 1.641 -3.282 C 1.64 -2.376 0.905 -1.643 0 -1.643 M 0 9.027 C -3.509 9.027 -7.025 8.399 -8.303 7.149 C -9.36 6.109 -9.715 4.275 -9.832 3.114 C -9.832 3.114 -9.849 3 -9.849 2.949 C -9.849 2.495 -9.479 2.13 -9.029 2.13 C -8.976 2.13 -7.001 2.291 -5.812 2.389 C -5.782 2.393 -5.753 2.396 -5.726 2.405 C -5.282 2.418 -4.925 2.777 -4.925 3.225 L -4.922 4.842 C -4.922 5.342 -4.515 5.743 -4.015 5.743 L 4.013 5.743 C 4.512 5.743 4.92 5.342 4.92 4.842 L 4.923 3.225 C 4.923 2.777 5.278 2.417 5.725 2.404 C 5.752 2.396 5.78 2.392 5.81 2.388 C 7 2.29 8.974 2.129 9.026 2.129 C 9.478 2.129 9.849 2.494 9.849 2.948 C 9.849 2.999 9.831 3.113 9.831 3.113 C 9.713 4.274 9.358 6.108 8.301 7.148 C 7.024 8.399 3.508 9.027 0 9.027" style="fill: rgb(210, 40, 86); fill-opacity: 1;"/>
      </g>
    </g>
  </g>
</svg>