<svg>
    <simbol id="twitter"   height="19"
            width="23">
        <g transform="translate(0.000000,128.000000) scale(0.100000,-0.100000)"
           fill="#000000" stroke="none">
            <path d="M540 1255 c-63 -20 -124 -75 -157 -143 -24 -50 -28 -68 -28 -147 1
-114 28 -197 96 -294 73 -105 67 -148 -26 -187 -153 -62 -263 -136 -302 -202
-34 -58 -29 -129 12 -172 63 -66 234 -100 500 -100 276 0 432 29 502 94 47 43
56 111 24 174 -33 65 -150 143 -304 203 -96 37 -103 83 -28 190 70 99 96 181
96 294 -1 72 -6 101 -24 143 -58 130 -212 193 -361 147z"/>
        </g>

    </simbol>
</svg>