<?xml version="1.0" encoding="utf-8"?>
<svg version="1.1" width="17.5px" height="14.6621px" preserveAspectRatio="none" viewBox="0 0 17.5 14.6621" xmlns="http://www.w3.org/2000/svg">
  <defs>
    <clipPath id="clippath1" transform="">
      <path d="M 0 14.662 L 17.5 14.662 L 17.5 0 L 0 0 Z" style="fill: none; clip-rule: nonzero;"/>
    </clipPath>
  </defs>
  <g transform="matrix(1 0 0 -1 0 14.6621)">
    <g transform="">
      <path d="M 0 14.662 L 17.5 14.662 L 17.5 0 L 0 0 Z" style="fill: none;"/>
    </g>
    <g style="clip-path: url(#clippath1);">
      <g transform="translate(11.2832 14.5098)">
        <path d="M 0 0 C 1.736 0.485 3.074 -0.263 3.685 -1.151 C 4.379 -0.925 5.057 -0.681 5.757 -0.46 C 5.753 -1.301 5.219 -1.938 4.874 -2.187 C 5.578 -2.353 6.217 -1.707 6.217 -1.707 C 6.042 -2.683 5.182 -3.453 4.605 -3.684 C 4.367 -10.276 1.334 -14.64 -5.776 -14.507 L -6.236 -14.507 C -6.658 -14.507 -10.526 -14.058 -11.283 -12.664 C -8.942 -12.856 -7.272 -12.252 -6.448 -11.515 C -7.437 -11.222 -9.209 -11.05 -9.518 -8.634 C -9.156 -8.738 -8.935 -8.856 -8.29 -8.75 C -9.526 -7.914 -10.898 -7.213 -10.822 -5.065 C -10.528 -5.385 -9.722 -5.588 -9.441 -5.526 C -10.166 -5.291 -11.471 -2.245 -10.362 -0.69 C -8.489 -2.501 -6.514 -4.211 -2.993 -4.375 C -2.777 -2.135 -1.822 -0.634 0 0" style="fill: rgb(0, 0, 0); fill-opacity: 1;"/>
      </g>
    </g>
  </g>
</svg>