<?xml version="1.0" encoding="utf-8"?>
<svg viewBox="0 0 500 500" xmlns="http://www.w3.org/2000/svg">
  <defs>
    <clipPath id="clippath2" transform="">
      <path d="M 0 40.375 L 146.3 40.375 L 146.3 0 L 0 0 Z" style="fill: none; clip-rule: nonzero;"/>
    </clipPath>
  </defs>
  <g transform="matrix(1, 0, 0, -1, 115.781205, 195.760223)">
    <g transform="">
      <path d="M 0 40.375 L 146.3 40.375 L 146.3 0 L 0 0 Z" style="fill: none;"/>
    </g>
    <g style="clip-path: url(#clippath2);">
      <g transform="translate(79.9878 10.7344)">
        <path d="M 0 0 C 3.734 0 6.182 1.996 6.182 4.959 L 6.182 5.021 C 6.182 8.242 3.768 9.916 0.129 9.916 L -5.57 9.916 L -5.57 -0.002 L 0 -0.002 Z M -8.114 10.979 C -8.114 11.688 -7.534 12.268 -6.858 12.268 L 0.322 12.268 C 5.409 12.268 8.758 9.563 8.758 5.121 L 8.758 5.058 C 8.758 0.197 4.701 -2.315 -0.096 -2.315 L -5.57 -2.315 L -5.57 -9.141 C -5.57 -9.849 -6.15 -10.428 -6.859 -10.428 C -7.535 -10.428 -8.115 -9.848 -8.115 -9.141 L -8.115 10.979 Z" style="fill: rgb(210, 40, 86); fill-opacity: 1;"/>
      </g>
    </g>
    <g style="clip-path: url(#clippath2);">
      <g transform="translate(93.603 21.875)">
        <path d="M 0 0 C 0 0.708 0.579 1.288 1.255 1.288 C 1.964 1.288 2.543 0.708 2.543 0 L 2.543 -20.283 C 2.543 -20.991 1.964 -21.57 1.255 -21.57 C 0.579 -21.57 0 -20.991 0 -20.283 Z" style="fill: rgb(210, 40, 86); fill-opacity: 1;"/>
      </g>
    </g>
    <g style="clip-path: url(#clippath2);">
      <g transform="translate(102.7437 21.8428)">
        <path d="M 0 0 C 0 0.676 0.58 1.256 1.256 1.256 L 1.61 1.256 C 2.19 1.256 2.545 0.966 2.898 0.516 L 16.582 -16.934 L 16.582 0.064 C 16.582 0.74 17.129 1.32 17.838 1.32 C 18.514 1.32 19.063 0.74 19.063 0.064 L 19.063 -20.284 C 19.063 -20.961 18.582 -21.475 17.904 -21.475 L 17.775 -21.475 C 17.228 -21.475 16.84 -21.153 16.457 -20.702 L 2.481 -2.835 L 2.481 -20.284 C 2.481 -20.961 1.935 -21.541 1.225 -21.541 C 0.549 -21.541 0.002 -20.961 0.002 -20.284 L 0.002 0 Z" style="fill: rgb(210, 40, 86); fill-opacity: 1;"/>
      </g>
    </g>
    <g style="clip-path: url(#clippath2);">
      <g transform="translate(128.1733 21.875)">
        <path d="M 0 0 C 0 0.708 0.58 1.288 1.257 1.288 C 1.965 1.288 2.543 0.708 2.543 0 L 2.543 -12.331 L 15.391 0.837 C 15.681 1.094 15.97 1.288 16.389 1.288 C 17.064 1.288 17.613 0.676 17.613 0.032 C 17.613 -0.322 17.451 -0.612 17.193 -0.869 L 9.209 -8.789 L 17.773 -19.35 C 17.998 -19.641 18.127 -19.896 18.127 -20.285 C 18.127 -20.961 17.55 -21.573 16.842 -21.573 C 16.359 -21.573 16.035 -21.314 15.812 -20.993 L 7.41 -10.529 L 2.547 -15.391 L 2.547 -20.285 C 2.547 -20.993 1.969 -21.573 1.261 -21.573 C 0.584 -21.573 0.004 -20.993 0.004 -20.285 L 0.004 0 Z" style="fill: rgb(210, 40, 86); fill-opacity: 1;"/>
      </g>
    </g>
    <g style="clip-path: url(#clippath2);">
      <g transform="translate(98.4976 30.5)">
        <path d="M 0 0 C -2.002 0 -3.623 1.623 -3.623 3.624 C -3.623 1.623 -5.246 0 -7.248 0 C -5.246 0 -3.623 -1.623 -3.623 -3.624 C -3.623 -1.623 -2.002 0 0 0" style="fill: rgb(210, 40, 86); fill-opacity: 1;"/>
      </g>
    </g>
    <g style="clip-path: url(#clippath2);">
      <g transform="translate(43.0938 21.062)">
        <path d="M 0 0 C 0.246 0 0.489 -0.014 0.73 -0.033 C 0.293 0.695 -0.497 1.188 -1.406 1.188 C -2.283 1.188 -3.02 1.756 -3.29 2.542 C -4.017 2.334 -4.715 2.06 -5.379 1.726 C -5.317 1.709 -5.257 1.688 -5.191 1.688 C -4.087 1.688 -3.191 0.792 -3.191 -0.312 C -3.191 -0.408 -3.206 -0.5 -3.219 -0.593 C -2.219 -0.211 -1.135 0 0 0" style="fill: rgb(210, 40, 86); fill-opacity: 1;"/>
      </g>
    </g>
    <g style="clip-path: url(#clippath2);">
      <g transform="translate(60.4619 12.3594)">
        <path d="M 0 0 C -0.002 0.009 -5.175 21.365 -5.175 21.365 C -5.536 23.712 -7.768 28.016 -13.774 28.016 C -14.603 28.016 -15.274 27.345 -15.274 26.516 C -15.274 25.687 -14.603 25.016 -13.774 25.016 C -8.918 25.016 -8.199 21.287 -8.135 20.873 L -3.368 1.172 L -5.441 1.172 C -5.886 4.729 -7.894 7.8 -10.746 9.694 C -11.643 9.314 -12.275 8.425 -12.275 7.391 C -12.275 7.303 -12.29 7.22 -12.301 7.135 C -10.31 5.776 -8.886 3.646 -8.472 1.17 C -8.39 0.682 -8.337 0.183 -8.337 -0.33 C -8.337 -0.842 -8.39 -1.342 -8.472 -1.83 C -9.188 -6.102 -12.893 -9.36 -17.368 -9.36 C -21.843 -9.36 -25.549 -6.102 -26.264 -1.83 C -26.346 -1.342 -26.399 -0.842 -26.399 -0.33 C -26.399 0.183 -26.346 0.682 -26.264 1.17 C -26.117 2.049 -25.837 2.882 -25.456 3.654 C -26.49 3.731 -27.308 4.586 -27.308 5.639 C -27.308 5.828 -27.385 5.996 -27.5 6.127 C -28.438 4.658 -29.069 2.978 -29.295 1.17 L -31.115 1.17 C -31.856 7.097 -36.917 11.701 -43.042 11.701 C -49.167 11.701 -54.227 7.099 -54.969 1.172 L -57.042 1.172 L -52.275 20.873 C -52.212 21.287 -51.492 25.016 -46.636 25.016 C -45.807 25.016 -45.136 25.687 -45.136 26.516 C -45.136 27.345 -45.807 28.016 -46.636 28.016 C -52.642 28.016 -54.874 23.712 -55.235 21.365 C -55.235 21.365 -60.408 0.009 -60.41 0 C -60.676 -1.109 -59.879 -1.826 -58.984 -1.826 C -58.972 -1.826 -58.961 -1.83 -58.948 -1.83 L -54.966 -1.83 C -54.887 -2.459 -54.751 -3.067 -54.579 -3.661 C -54.52 -3.555 -54.477 -3.438 -54.477 -3.308 C -54.477 -2.203 -53.581 -1.308 -52.477 -1.308 C -52.311 -1.308 -52.153 -1.332 -51.999 -1.37 C -52.042 -1.027 -52.073 -0.683 -52.073 -0.328 C -52.073 0.184 -52.02 0.683 -51.938 1.172 C -51.223 5.442 -47.517 8.703 -43.042 8.703 C -38.567 8.703 -34.862 5.442 -34.146 1.172 C -34.064 0.683 -34.011 0.184 -34.011 -0.328 C -34.011 -0.84 -34.064 -1.34 -34.146 -1.828 C -34.861 -6.101 -38.567 -9.359 -43.042 -9.359 C -45.064 -9.359 -46.925 -8.689 -48.428 -7.565 C -48.778 -7.867 -49.228 -8.057 -49.727 -8.057 C -50.14 -8.057 -50.476 -8.393 -50.476 -8.805 C -50.476 -9.094 -50.541 -9.368 -50.652 -9.616 C -48.577 -11.324 -45.93 -12.359 -43.038 -12.359 C -36.913 -12.359 -31.853 -7.756 -31.111 -1.83 L -29.297 -1.83 C -28.555 -7.756 -23.495 -12.359 -17.37 -12.359 C -11.245 -12.359 -6.184 -7.756 -5.443 -1.83 L -1.462 -1.83 C -1.45 -1.83 -1.439 -1.825 -1.426 -1.825 C -0.531 -1.826 0.266 -1.109 0 0" style="fill: rgb(210, 40, 86); fill-opacity: 1;"/>
      </g>
    </g>
    <g style="clip-path: url(#clippath2);">
      <g transform="translate(50.686 24.25)">
        <path d="M 0 0 C -2.485 0 -4.499 2.014 -4.499 4.499 C -4.499 2.014 -6.513 0 -8.998 0 C -6.513 0 -4.499 -2.014 -4.499 -4.499 C -4.499 -2.014 -2.486 0 0 0" style="fill: rgb(210, 40, 86); fill-opacity: 1;"/>
      </g>
    </g>
    <g style="clip-path: url(#clippath2);">
      <g transform="translate(37.9038 20.749)">
        <path d="M 0 0 C -1.519 0 -2.749 1.23 -2.749 2.749 C -2.749 1.23 -3.979 0 -5.498 0 C -3.979 0 -2.749 -1.229 -2.749 -2.749 C -2.749 -1.229 -1.518 0 0 0" style="fill: rgb(210, 40, 86); fill-opacity: 1;"/>
      </g>
    </g>
    <g style="clip-path: url(#clippath2);">
      <g transform="translate(10.7339 6.3027)">
        <path d="M 0 0 C -1.519 0 -2.749 1.23 -2.749 2.75 C -2.749 1.23 -3.979 0 -5.498 0 C -3.979 0 -2.749 -1.229 -2.749 -2.748 C -2.749 -1.23 -1.519 0 0 0" style="fill: rgb(210, 40, 86); fill-opacity: 1;"/>
      </g>
    </g>
  </g>
</svg>