<?xml version="1.0" encoding="utf-8"?>
<svg viewBox="0 0 500 500" xmlns="http://www.w3.org/2000/svg">
  <defs>
    <clipPath id="clippath7" transform="">
      <path d="M 0 22.86 L 74.427 22.86 L 74.427 0 L 0 0 Z" style="fill: none; clip-rule: nonzero;"/>
    </clipPath>
  </defs>
  <g transform="matrix(1, 0, 0, -1, 165.467957, 150.005127)">
    <g transform="">
      <path d="M 0 22.86 L 74.427 22.86 L 74.427 0 L 0 0 Z" style="fill: none;"/>
    </g>
    <g style="clip-path: url(#clippath7);">
      <g transform="translate(8.1143 10.4316)">
        <path d="M 0 0 C 3.734 0 6.182 1.996 6.182 4.958 L 6.182 5.023 C 6.182 8.243 3.767 9.918 0.128 9.918 L -5.57 9.918 L -5.57 0 Z M -8.114 10.979 C -8.114 11.688 -7.534 12.268 -6.858 12.268 L 0.322 12.268 C 5.409 12.268 8.758 9.563 8.758 5.12 L 8.758 5.057 C 8.758 0.195 4.701 -2.316 -0.096 -2.316 L -5.57 -2.316 L -5.57 -9.142 C -5.57 -9.85 -6.15 -10.43 -6.858 -10.43 C -7.534 -10.431 -8.114 -9.851 -8.114 -9.143 Z" style="fill: rgb(210, 40, 86); fill-opacity: 1;"/>
      </g>
    </g>
    <g style="clip-path: url(#clippath7);">
      <g transform="translate(21.729 21.5723)">
        <path d="M 0 0 C 0 0.708 0.579 1.288 1.254 1.288 C 1.963 1.288 2.542 0.708 2.542 0 L 2.542 -20.283 C 2.542 -20.991 1.963 -21.571 1.254 -21.571 C 0.578 -21.571 -0.001 -20.991 -0.001 -20.283 L -0.001 0 Z" style="fill: rgb(210, 40, 86); fill-opacity: 1;"/>
      </g>
    </g>
    <g style="clip-path: url(#clippath7);">
      <g transform="translate(30.8701 21.54)">
        <path d="M 0 0 C 0 0.676 0.579 1.256 1.256 1.256 L 1.61 1.256 C 2.19 1.256 2.544 0.966 2.898 0.516 L 16.582 -16.934 L 16.582 0.064 C 16.581 0.74 17.128 1.32 17.837 1.32 C 18.513 1.32 19.06 0.74 19.06 0.064 L 19.06 -20.284 C 19.06 -20.96 18.578 -21.475 17.901 -21.475 L 17.772 -21.475 C 17.226 -21.475 16.839 -21.153 16.453 -20.703 L 2.479 -2.833 L 2.479 -20.283 C 2.479 -20.959 1.932 -21.539 1.224 -21.539 C 0.547 -21.539 0 -20.959 0 -20.283 Z" style="fill: rgb(210, 40, 86); fill-opacity: 1;"/>
      </g>
    </g>
    <g style="clip-path: url(#clippath7);">
      <g transform="translate(56.2998 21.5723)">
        <path d="M 0 0 C 0 0.708 0.579 1.288 1.257 1.288 C 1.964 1.288 2.543 0.708 2.543 0 L 2.543 -12.331 L 15.39 0.837 C 15.679 1.095 15.97 1.288 16.388 1.288 C 17.064 1.288 17.612 0.676 17.612 0.032 C 17.612 -0.322 17.451 -0.612 17.193 -0.869 L 9.209 -8.789 L 17.773 -19.351 C 17.998 -19.641 18.127 -19.897 18.127 -20.284 C 18.127 -20.96 17.548 -21.572 16.841 -21.572 C 16.357 -21.572 16.034 -21.314 15.81 -20.992 L 7.407 -10.529 L 2.546 -15.391 L 2.546 -20.284 C 2.546 -20.992 1.966 -21.572 1.259 -21.572 C 0.581 -21.572 0.002 -20.992 0.002 -20.284 L 0.002 0 Z" style="fill: rgb(210, 40, 86); fill-opacity: 1;"/>
      </g>
    </g>
  </g>
</svg>