<?xml version="1.0" encoding="utf-8"?>
<svg version="1.1" width="146.3px" height="40.376px" preserveAspectRatio="none" viewBox="0 0 146.3 40.376" xmlns="http://www.w3.org/2000/svg">
  <defs>
    <clipPath id="clippath3" transform="">
      <path d="M 0 40.376 L 146.3 40.376 L 146.3 0 L 0 0 Z" style="fill: none; clip-rule: nonzero;"/>
    </clipPath>
  </defs>
  <g transform="matrix(1 0 0 -1 0 40.376)">
    <g transform="">
      <path d="M 0 40.376 L 146.3 40.376 L 146.3 0 L 0 0 Z" style="fill: none;"/>
    </g>
    <g style="clip-path: url(#clippath3);">
      <g transform="translate(79.9878 10.7354)">
        <path d="M 0 0 C 3.734 0 6.182 1.996 6.182 4.959 L 6.182 5.021 C 6.182 8.242 3.768 9.915 0.129 9.915 L -5.57 9.915 L -5.57 -0.002 L 0 -0.002 Z M -8.114 10.979 C -8.114 11.688 -7.534 12.268 -6.858 12.268 L 0.322 12.268 C 5.409 12.268 8.758 9.563 8.758 5.121 L 8.758 5.059 C 8.758 0.199 4.701 -2.314 -0.096 -2.314 L -5.57 -2.314 L -5.57 -9.139 C -5.57 -9.848 -6.15 -10.426 -6.86 -10.426 C -7.536 -10.426 -8.116 -9.846 -8.116 -9.139 Z" style="fill: rgb(40, 54, 69); fill-opacity: 1;"/>
      </g>
    </g>
    <g style="clip-path: url(#clippath3);">
      <g transform="translate(93.603 21.876)">
        <path d="M 0 0 C 0 0.708 0.579 1.288 1.255 1.288 C 1.964 1.288 2.543 0.708 2.543 0 L 2.543 -20.283 C 2.543 -20.991 1.964 -21.57 1.255 -21.57 C 0.579 -21.57 0 -20.991 0 -20.283 Z" style="fill: rgb(40, 54, 69); fill-opacity: 1;"/>
      </g>
    </g>
    <g style="clip-path: url(#clippath3);">
      <g transform="translate(102.7437 21.8438)">
        <path d="M 0 0 C 0 0.676 0.58 1.256 1.256 1.256 L 1.61 1.256 C 2.19 1.256 2.545 0.966 2.898 0.516 L 16.582 -16.934 L 16.582 0.064 C 16.582 0.74 17.129 1.32 17.838 1.32 C 18.514 1.32 19.063 0.74 19.063 0.064 L 19.063 -20.284 C 19.063 -20.962 18.584 -21.475 17.905 -21.475 L 17.776 -21.475 C 17.229 -21.475 16.84 -21.153 16.459 -20.702 L 2.482 -2.836 L 2.482 -20.284 C 2.482 -20.962 1.936 -21.542 1.225 -21.542 C 0.549 -21.542 0.002 -20.962 0.002 -20.284 L 0.002 0 Z" style="fill: rgb(40, 54, 69); fill-opacity: 1;"/>
      </g>
    </g>
    <g style="clip-path: url(#clippath3);">
      <g transform="translate(128.1733 21.876)">
        <path d="M 0 0 C 0 0.708 0.58 1.288 1.257 1.288 C 1.965 1.288 2.543 0.708 2.543 0 L 2.543 -12.331 L 15.391 0.837 C 15.681 1.094 15.97 1.288 16.389 1.288 C 17.064 1.288 17.613 0.676 17.613 0.032 C 17.613 -0.322 17.451 -0.612 17.193 -0.869 L 9.209 -8.789 L 17.773 -19.35 C 17.998 -19.641 18.127 -19.896 18.127 -20.286 C 18.127 -20.962 17.551 -21.574 16.843 -21.574 C 16.361 -21.574 16.035 -21.314 15.813 -20.994 L 7.412 -10.529 L 2.549 -15.391 L 2.549 -20.286 C 2.549 -20.994 1.971 -21.574 1.263 -21.574 C 0.586 -21.574 0.006 -20.994 0.006 -20.286 L 0.006 0 Z" style="fill: rgb(40, 54, 69); fill-opacity: 1;"/>
      </g>
    </g>
    <g style="clip-path: url(#clippath3);">
      <g transform="translate(51.9902 10.5322)">
        <path d="M 0 0 C -0.716 -4.272 -4.421 -7.531 -8.896 -7.531 C -13.371 -7.531 -17.077 -4.272 -17.792 0 C -17.874 0.488 -17.927 0.988 -17.927 1.5 C -17.927 2.012 -17.874 2.511 -17.792 3 C -17.076 7.271 -13.371 10.531 -8.896 10.531 C -4.421 10.531 -0.715 7.271 0 3 C 0.082 2.511 0.135 2.012 0.135 1.5 C 0.135 0.988 0.082 0.488 0 0 M -25.675 0 C -26.39 -4.272 -30.096 -7.531 -34.571 -7.531 C -39.046 -7.531 -42.751 -4.272 -43.467 0 C -43.549 0.488 -43.602 0.988 -43.602 1.5 C -43.602 2.012 -43.549 2.511 -43.467 3 C -42.752 7.271 -39.046 10.531 -34.571 10.531 C -30.096 10.531 -26.391 7.271 -25.675 3 C -25.593 2.511 -25.54 2.012 -25.54 1.5 C -25.54 0.988 -25.593 0.488 -25.675 0 M 8.472 1.828 C 8.47 1.837 3.297 23.193 3.297 23.193 C 2.936 25.541 0.704 29.844 -5.302 29.844 C -6.131 29.844 -6.802 29.173 -6.802 28.344 C -6.802 27.515 -6.131 26.844 -5.302 26.844 C -0.446 26.844 0.273 23.115 0.337 22.701 L 5.104 3 L 3.031 3 C 2.289 8.927 -2.771 13.531 -8.896 13.531 C -15.021 13.531 -20.082 8.927 -20.823 3 L -22.643 3 C -23.384 8.927 -28.445 13.531 -34.57 13.531 C -40.695 13.531 -45.755 8.927 -46.497 3 L -48.57 3 L -43.803 22.701 C -43.74 23.115 -43.02 26.844 -38.164 26.844 C -37.335 26.844 -36.664 27.515 -36.664 28.344 C -36.664 29.173 -37.335 29.844 -38.164 29.844 C -44.17 29.844 -46.402 25.541 -46.763 23.193 C -46.763 23.193 -51.936 1.837 -51.938 1.828 C -52.204 0.719 -51.407 0.002 -50.512 0.002 C -50.5 0.002 -50.489 -0.002 -50.476 -0.002 L -46.494 -0.002 C -45.753 -5.928 -40.692 -10.532 -34.567 -10.532 C -28.442 -10.532 -23.382 -5.928 -22.64 -0.002 L -20.826 -0.002 C -20.084 -5.928 -15.024 -10.532 -8.899 -10.532 C -2.774 -10.532 2.287 -5.928 3.028 -0.002 L 7.01 -0.002 C 7.022 -0.002 7.033 0.002 7.046 0.002 C 7.941 0.002 8.738 0.719 8.472 1.828" style="fill: rgb(210, 40, 86); fill-opacity: 1;"/>
      </g>
    </g>
  </g>
</svg>